<?xml version="1.0" encoding="UTF-8" standalone="no"?>
<svg
   xmlns:dc="http://purl.org/dc/elements/1.1/"
   xmlns:cc="http://creativecommons.org/ns#"
   xmlns:rdf="http://www.w3.org/1999/02/22-rdf-syntax-ns#"
   xmlns:svg="http://www.w3.org/2000/svg"
   xmlns="http://www.w3.org/2000/svg"
   viewBox="0 0 398.61334 134.61333"
   height="134.61333"
   width="398.61334"
   xml:space="preserve"
   id="svg2"
   version="1.1"><metadata
     id="metadata8"><rdf:RDF><cc:Work
         rdf:about=""><dc:format>image/svg+xml</dc:format><dc:type
           rdf:resource="http://purl.org/dc/dcmitype/StillImage" /></cc:Work></rdf:RDF></metadata><defs
     id="defs6" /><g
     transform="matrix(1.3333333,0,0,-1.3333333,0,134.61333)"
     id="g10"><g
       transform="scale(0.1)"
       id="g12"><path
         id="path14"
         style="fill:#91d122;fill-opacity:1;fill-rule:nonzero;stroke:none"
         d="M 884.219,338.711 H 803.496 V 467.48 l -54.297,81.192 V 338.711 H 667.988 V 677.93 h 81.211 v -31.7 l 54.297,-80.722 V 677.93 h 80.723 V 338.711" /><path
         id="path16"
         style="fill:#91d122;fill-opacity:1;fill-rule:nonzero;stroke:none"
         d="m 1196.57,412.715 c 0,-49.024 -32.69,-74.004 -77.35,-74.004 h -61.51 c -44.19,0 -77.358,24.98 -77.358,74.004 V 677.93 h 81.208 V 389.16 h 54.28 v 288.77 h 80.73 V 412.715" /><path
         id="path18"
         style="fill:#91d122;fill-opacity:1;fill-rule:nonzero;stroke:none"
         d="m 1438.74,338.711 h -68.69 c -44.2,0 -77.36,24.98 -77.36,74.004 V 677.93 h 81.19 V 389.16 h 64.86 v -50.449" /><path
         id="path20"
         style="fill:#91d122;fill-opacity:1;fill-rule:nonzero;stroke:none"
         d="m 1656.91,338.711 h -68.71 c -44.22,0 -77.38,24.98 -77.38,74.004 V 677.93 h 81.21 V 389.16 h 64.88 v -50.449" /><path
         id="path22"
         style="fill:#91d122;fill-opacity:1;fill-rule:nonzero;stroke:none"
         d="m 1810.2,338.711 h -81.22 V 677.93 h 81.22 V 338.711" /><path
         id="path24"
         style="fill:#91d122;fill-opacity:1;fill-rule:nonzero;stroke:none"
         d="m 2052.38,483.34 h -64.86 V 338.711 h -81.21 v 265.234 c 0,49.004 33.14,73.985 77.36,73.985 h 68.71 v -50.45 h -64.86 v -94.179 h 64.86 V 483.34" /><path
         id="path26"
         style="fill:#91d122;fill-opacity:1;fill-rule:nonzero;stroke:none"
         d="m 2184.55,456.426 c -33.65,0 -59.59,28.828 -59.59,68.242 V 677.93 h 80.72 V 506.875 h 53.81 V 677.93 h 80.72 V 524.668 c 0,-39.414 -25.95,-68.242 -59.57,-68.242 h -7.69 V 338.711 h -80.72 v 117.715 h -7.68" /><path
         id="path28"
         style="fill:#27963c;fill-opacity:1;fill-rule:nonzero;stroke:none"
         d="m 583.242,264.531 h -35.078 c -45.176,0 -77.363,24.981 -77.363,74.004 v 141.25 h -23.067 v 49.981 h 23.067 v 141.269 c 0,49.004 32.187,74.004 77.363,74.004 h 35.078 V 694.57 H 551.523 V 554.766 c 0,-24.532 -13.457,-41.328 -36.523,-49.981 23.066,-8.652 36.523,-25 36.523,-49.492 V 314.98 h 31.719 v -50.449" /><path
         id="path30"
         style="fill:#27963c;fill-opacity:1;fill-rule:nonzero;stroke:none"
         d="m 2541.84,479.785 h -23.05 v -141.25 c 0,-49.023 -32.68,-74.004 -77.36,-74.004 h -35.1 v 50.449 h 31.74 v 140.313 c 0,24.492 13.45,40.84 36.01,49.492 -22.56,8.653 -36.01,25.449 -36.01,49.981 V 694.57 h -31.74 v 50.469 h 35.1 c 44.68,0 77.36,-25 77.36,-74.004 V 529.766 h 23.05 v -49.981" /></g></g></svg>