<svg xmlns="http://www.w3.org/2000/svg" viewBox="0 0 120.77 79.8"><defs><style>.cls-1,.cls-2{fill:#000;}.cls-3{fill:#00845c !important;}.cls-1{fill-rule:evenodd;}</style></defs><title>fcsa_logo_stacked</title><g id="Layer_2" data-name="Layer 2"><g id="Layer_1-2" data-name="Layer 1"><path class="cls-1 cls-3" d="M75.68,15.22s5.74,5.6,5.81,5.88S75.68,27,75.68,27c-1.6,1.41-4.54,4-8.71.07-1.12-1.05-2.12-2.31-5-5.14l12.81-.82-12.81-.82c2.91-2.83,3.91-4.08,5-5.14,4.17-3.94,7.11-1.34,8.71.07M45.09,27s-5.74-5.6-5.81-5.88,5.81-5.88,5.81-5.88c1.6-1.42,4.54-4,8.71-.07,1.12,1.05,2.12,2.31,5,5.14L46,21.1l12.81.82c-2.9,2.83-3.91,4.08-5,5.14C49.63,31,46.69,28.4,45.09,27m15.74,2.68L61,26.86l7,7.09a8.48,8.48,0,0,1-1.31,2Zm.22-4.17.15-2.83c2.83,2.9,4.08,3.91,5.14,5,2.06,2.18,2.33,4,1.92,5.51ZM64,38.71c-1.59,1.6-3.45,3.46-3.61,3.5s-2-1.89-3.61-3.5l3.45-3.49.16,3.12.16-3.12Zm-7.83-.62L54.61,36.5,60,31l.15,2.79Zm-2.08-2.17a8.51,8.51,0,0,1-1.31-2l7-7.09.15,2.81ZM52.51,33.2c-.41-1.49-.14-3.33,1.92-5.51,1.05-1.11,2.31-2.12,5.14-5l.15,2.83Zm13.66,3.3L64.6,38.09l-4-4.26L60.77,31ZM54.5,5.81S60.11.07,60.39,0s5.88,5.81,5.88,5.81c1.42,1.6,4,4.54.07,8.71-1.05,1.12-2.31,2.12-5.14,5L60.39,6.74l-.82,12.81c-2.83-2.91-4.08-3.91-5.14-5-3.94-4.17-1.34-7.11.07-8.71"/><path class="cls-2" d="M69,39.14a1.38,1.38,0,1,1-1,2.36,1.39,1.39,0,0,1,0-2,1.33,1.33,0,0,1,1-.41m1.61,1.38a1.53,1.53,0,0,0-.47-1.13,1.6,1.6,0,0,0-2.26,0,1.6,1.6,0,1,0,2.73,1.13m-1.18-.35a.27.27,0,0,1-.18.27.86.86,0,0,1-.3,0h-.28v-.63H69a.82.82,0,0,1,.38.07.27.27,0,0,1,.12.26m-1.07-.54V41.4h.31v-.7H69a.74.74,0,0,1,.35.06.44.44,0,0,1,.17.4v.23h.29v0a.3.3,0,0,1,0-.09s0-.09,0-.13V41a.49.49,0,0,0-.1-.27.43.43,0,0,0-.3-.17.65.65,0,0,0,.26-.08.39.39,0,0,0,.17-.35.44.44,0,0,0-.27-.44,1.36,1.36,0,0,0-.48-.06Z"/><path class="cls-1" d="M31.9,76.5c2.31,0,3.7-2,3.7-4.42a2,2,0,0,0-2.26-2.24c-2.31,0-3.7,2.05-3.7,4.42A2,2,0,0,0,31.9,76.5m.46-.54c-.81,0-.85-1.46-.85-2.06,0-.93.17-3.5,1.37-3.5.81,0,.85,1.46.85,2.08,0,.92-.17,3.48-1.37,3.48"/><path class="cls-1" d="M39,70.12c.08-1,.22-3.18,1-3.58.23.43.45.76.93.76a.52.52,0,0,0,.58-.53c0-.53-.74-.73-1.11-.73-.7,0-2.67.33-3.11,3.3l-.12.79h-.8l-.07.5h.8C37,72.95,36.7,76.4,36.58,77c-.26,1.43-.35,1.76-1,2.17a1.19,1.19,0,0,0-1-.72.52.52,0,0,0-.5.53.86.86,0,0,0,.93.77,4,4,0,0,0,3.38-3.4c.21-1.2.3-2.58.54-5.78h1l.07-.5Z"/><path class="cls-1" d="M46.06,76.95l.3-2.3h2l.35,2.3H51.2L48.89,65.12h-3L43.55,76.95Zm2-4.39H46.63l.72-5.3h0Z"/><path class="cls-1" d="M51.85,68.11v8.83h2.26V70.64c0-.47.21-.73.67-.73s.47.35.54.73v6.31h2.26V70.64c0-.46.21-.71.61-.73s.57.32.6.73v6.31H61V69.71a1.85,1.85,0,0,0-2-1.85A1.88,1.88,0,0,0,57.37,69h0a1.69,1.69,0,0,0-1.67-1.17A2.12,2.12,0,0,0,54,69.14h0v-1Z"/><path class="cls-1" d="M64.35,71.29V70.7c0-.61.16-1.18.79-1.18s.77.58.77.9v.87Zm3.82,1.66V70.42c0-1.91-1.46-2.57-3-2.55-1.74,0-3,.76-3,3v3.6c0,2,1.42,2.76,3,2.74,2,0,3.07-1.07,3-3.34H65.84c0,.74,0,1.58-.8,1.53-.5,0-.7-.44-.7-.93V72.94Z"/><path class="cls-1" d="M69.25,68.11v8.83h2.26V71.51c0-.73.3-.87.94-.87a3.34,3.34,0,0,1,.68.06V67.86c-.94,0-1.49.65-1.75,1.59h0V68.11Z"/><path class="cls-1" d="M76.49,68.11H74.23v8.83h2.26Zm0-3H74.23v2.13h2.26Z"/><path class="cls-1" d="M83.79,71.4c.13-2.43-.75-3.5-3-3.53-1.75,0-2.8.76-2.8,3v3.6a2.47,2.47,0,0,0,2.8,2.74c.34,0,.54,0,.75,0a2.3,2.3,0,0,0,2.13-1.72,11.25,11.25,0,0,0,.18-2.1H81.69c0,.66.14,2.05-.7,2.05-.58,0-.72-.47-.72-1V70.75c0-.57.1-1.07.68-1.07.34,0,.51.19.61.55s0,.68.08,1v.16Z"/><path class="cls-1" d="M88.69,74c0,.57-.16,1.34-.82,1.34a.83.83,0,0,1-.84-.95,1.31,1.31,0,0,1,.52-1.13,9.74,9.74,0,0,1,1.14-.65Zm.24,2.9h2.2a3.31,3.31,0,0,1-.18-1V70.56c0-1.94-.81-2.7-3-2.7-1.82,0-3.15.84-3.05,3h2.26c0-.74,0-1.37.87-1.37.45,0,.71.43.71.92,0,.95-1,1.06-2,1.42a2.75,2.75,0,0,0-2,3,2.1,2.1,0,0,0,2.07,2.37,2.29,2.29,0,0,0,1.95-1.07Z"/><polygon class="cls-1" points="2.5 60.66 2.5 55.66 5.61 55.66 5.61 53.29 2.5 53.29 2.5 51.19 5.88 51.19 5.88 48.83 0 48.83 0 60.66 2.5 60.66"/><path class="cls-1" d="M10.67,57.75c0,.57-.16,1.34-.82,1.34A.84.84,0,0,1,9,58.15,1.31,1.31,0,0,1,9.54,57a9.77,9.77,0,0,1,1.14-.65Zm.24,2.9h2.2a3.29,3.29,0,0,1-.18-1V54.27c0-1.94-.81-2.7-3-2.7-1.82,0-3.15.84-3.05,3H9.1c0-.74,0-1.37.86-1.37.46,0,.71.43.71.92,0,.95-1,1.06-2,1.42a2.74,2.74,0,0,0-2,3,2.1,2.1,0,0,0,2.07,2.37,2.29,2.29,0,0,0,1.95-1.07Z"/><path class="cls-1" d="M14.1,51.82v8.83h2.26V55.21c0-.73.3-.87.94-.87a3.34,3.34,0,0,1,.68.06V51.57c-.94,0-1.49.65-1.75,1.59h0V51.82Z"/><path class="cls-1" d="M18.76,51.82v8.83H21V54.35c0-.47.21-.73.67-.73s.47.35.54.73v6.31h2.26V54.35c0-.46.21-.71.61-.73s.57.32.6.73v6.31h2.26V53.42a1.85,1.85,0,0,0-2-1.85,1.88,1.88,0,0,0-1.65,1.17h0a1.69,1.69,0,0,0-1.67-1.17,2.12,2.12,0,0,0-1.69,1.28h0v-1Z"/><path class="cls-1" d="M39.33,53V52c0-2.41-1.28-3.42-3.41-3.42-2.29,0-3.35,1.2-3.35,3.77v4.86c0,2.41.89,3.77,3.2,3.77,2.55,0,3.61-1.42,3.61-3.45V56h-2.5v1.07c0,.73-.07,1.7-.92,1.7-.65,0-.89-.39-.89-1.06V51.9c0-.77.18-1.25,1-1.23.47,0,.8.52.8,1.53V53Z"/><path class="cls-1" d="M40.5,51.82v8.83h2.26V55.21c0-.73.3-.87.94-.87a3.34,3.34,0,0,1,.68.06V51.57c-.94,0-1.49.65-1.75,1.59h0V51.82Z"/><path class="cls-1" d="M47.43,55v-.58c0-.61.16-1.18.79-1.18s.77.58.77.9V55Zm3.82,1.66V54.13c0-1.91-1.46-2.57-3-2.56-1.75,0-3,.76-3,3v3.6c0,2,1.42,2.76,3,2.74,2,0,3.07-1.07,3-3.34H48.92c0,.74,0,1.58-.79,1.53-.5,0-.7-.44-.7-.93V56.65Z"/><path class="cls-1" d="M54.57,55.18c0-.57,0-1.56.7-1.56.55,0,.65.9.65,1.66v2.08c0,.85-.08,1.53-.7,1.53s-.65-.9-.65-1.42Zm3.61,5.47V48.83H55.92v3.8h0a1.89,1.89,0,0,0-1.65-1.06c-1.49,0-1.93,1.64-1.93,3v3.06c0,1.5.33,3.22,2,3.28A2.06,2.06,0,0,0,56,59.63h0v1Z"/><path class="cls-1" d="M61.94,51.82H59.68v8.83h2.26Zm0-3H59.68V51h2.26Z"/><path class="cls-1" d="M63.83,53.64v5.11c0,1.34.67,2,1.89,2a8.82,8.82,0,0,0,1.45-.14V58.87a2.41,2.41,0,0,0-.58,0c-.3,0-.5-.11-.5-.61V53.64h1.08V51.82H66.09V49.3H63.83v2.52h-.89v1.81Z"/><path class="cls-1" d="M71.27,56.7V58c0,1.56,1,3,3.25,3,2.07,0,3.21-1.26,3.21-3.53a3.69,3.69,0,0,0-.92-2.82,17.37,17.37,0,0,0-2.33-1.67,1.48,1.48,0,0,1-.75-1.45c.06-.52.36-.84.87-.79.82.06.8,1,.82,1.7h2.3c.11-2.22-1-3.83-3.16-3.83-1.93,0-3.14,1.14-3.14,3.36a3.7,3.7,0,0,0,.72,2.36A7.29,7.29,0,0,0,74,55.81c.65.44,1.39.82,1.39,1.81,0,.6-.26,1.18-.84,1.18-.79,0-1-.6-1-1.28V56.7Z"/><path class="cls-1" d="M80.94,55v-.58c0-.61.16-1.18.8-1.18s.77.58.77.9V55Zm3.82,1.66V54.13c0-1.91-1.46-2.57-3-2.56-1.74,0-3,.76-3,3v3.6c0,2,1.42,2.76,3,2.74,2,0,3.07-1.07,3-3.34H82.43c0,.74,0,1.58-.79,1.53-.5,0-.7-.44-.7-.93V56.65Z"/><path class="cls-1" d="M85.84,51.82v8.83h2.26V55.21c0-.73.3-.87.94-.87a3.34,3.34,0,0,1,.68.06V51.57c-.94,0-1.49.65-1.75,1.59h0V51.82Z"/><polygon class="cls-1" points="92.62 51.82 90.35 51.82 92.08 60.66 94.66 60.66 96.41 51.82 94.21 51.82 93.4 57.53 93.37 57.53 92.62 51.82"/><path class="cls-1" d="M99.62,51.82H97.37v8.83h2.26Zm0-3H97.37V51h2.26Z"/><path class="cls-1" d="M106.93,55.1c.13-2.43-.75-3.5-3-3.53-1.75,0-2.8.76-2.8,3v3.6a2.47,2.47,0,0,0,2.8,2.74c.34,0,.54,0,.75,0a2.3,2.3,0,0,0,2.13-1.72,11.18,11.18,0,0,0,.18-2.1h-2.19c0,.66.14,2.05-.7,2.05-.58,0-.73-.47-.73-1V54.46c0-.57.1-1.07.68-1.07.34,0,.51.19.61.55s0,.68.08,1v.16Z"/><path class="cls-1" d="M110.35,55v-.58c0-.61.16-1.18.8-1.18s.77.58.77.9V55Zm3.82,1.66V54.13c0-1.91-1.46-2.57-3-2.56-1.75,0-3,.76-3,3v3.6c0,2,1.42,2.76,3,2.74,2,0,3.07-1.07,3-3.34h-2.24c0,.74,0,1.58-.79,1.53-.5,0-.7-.44-.7-.93V56.65Z"/><path class="cls-1" d="M120.66,54.44a2.6,2.6,0,0,0-2.88-2.87,2.63,2.63,0,0,0-2.94,2.73,2.54,2.54,0,0,0,.57,1.66c.71.9,2,1.28,2.88,1.81a.9.9,0,0,1,.3.68.75.75,0,0,1-.81.84c-.68,0-.84-.71-.81-1.33h-2.16c-.08,2.13,1.16,3,3,3s3-.84,3-2.81-1.58-2.52-3-3.26c-.34-.19-.7-.43-.7-.9a.67.67,0,0,1,.75-.74c.72,0,.7.61.75,1.21Z"/></g></g></svg>